<svg width="30" height="31" viewBox="0 0 30 31" fill="none" xmlns="http://www.w3.org/2000/svg">
<path d="M29.6658 15.5C29.6658 13.6758 26.9391 12.0753 22.8364 11.1664C23.4373 9.62235 23.4835 8.38395 22.8341 7.7345C22.1783 7.07869 20.92 7.13201 19.3529 7.75121C18.4472 3.59826 16.8364 0.833336 14.9995 0.833336C13.1627 0.833336 11.5399 3.61816 10.6358 7.79658C9.01538 7.1336 7.71175 7.06197 7.04004 7.7345C6.38742 8.38713 6.43677 9.63588 7.04799 11.1918C3.00896 12.1055 0.333252 13.6925 0.333252 15.5C0.333252 17.3075 3.05194 18.9199 7.14589 19.8304C6.44393 21.4978 6.354 22.8429 7.04004 23.5289C7.71971 24.2086 9.04483 24.1267 10.6899 23.4438C11.6028 27.4877 13.1913 30.1667 14.9995 30.1667C16.8077 30.1667 18.3836 27.5084 19.2988 23.4915C20.8913 24.1314 22.1703 24.1927 22.8341 23.5289C23.5169 22.8461 23.431 21.5122 22.7393 19.8559C26.897 18.951 29.6666 17.3385 29.6666 15.5H29.6658ZM15.863 16.3643L14.9987 25.3396L14.1344 16.3643L5.1594 15.5L14.1344 14.6357L14.9987 5.66041L15.863 14.6357L24.838 15.5L15.863 16.3643Z" fill="white"/>
</svg>
